<svg width="131" height="119" viewBox="0 0 131 119" fill="none" xmlns="http://www.w3.org/2000/svg">
<path d="M68.0399 0C119.272 1.246 142.576 38.122 125.183 68.148C117.412 81.562 110.692 81.448 112.084 84.754C125.409 116.404 124.961 116.294 124.046 117.456C122.861 118.962 121.726 119.162 119.952 118.07C112.694 113.604 97.8265 104.822 86.1816 96.822C83.5754 95.032 77.5164 100.486 55.9177 99.062C24.8654 97.006 -2.56614 76.24 0.191539 48.146C2.47404 24.894 26.8013 1.314 68.0399 0ZM68.7018 4.98C17.0032 4.82 -12.0966 48.35 14.8473 76.662C28.3576 90.858 49.1989 96.378 69.1313 94.966C81.4153 94.096 84.6731 90.42 89.2402 94.272C89.678 94.642 118.72 112.954 119.029 112.708C119.384 112.428 119.282 112.608 107.751 84.26C106.842 82.026 106.981 81.652 108.897 80.076C146.093 49.446 119.029 5.136 68.7018 4.98Z" fill="#06DAAE"/>
<path d="M36.4314 57.904C32.2046 57.89 28.4862 54.436 28.5423 50.576C28.6066 46.162 32.4536 42.416 36.917 42.42C41.2641 42.424 44.887 45.802 44.8829 49.85C44.8787 54.196 40.9694 57.92 36.4314 57.904Z" fill="#06DAAE"/>
<path d="M69.6252 50.166C69.6252 54.494 65.747 58.246 61.3542 58.16C57.0279 58.08 53.3945 54.656 53.4153 50.684C53.4692 40.552 69.621 39.776 69.6252 50.166Z" fill="#06DAAE"/>
<path d="M87.0593 42.956C97.8452 43.066 96.982 58.38 86.2978 58.288C75.6738 58.198 75.9083 42.844 87.0593 42.956Z" fill="#06DAAE"/>
</svg>
