<svg width="119" height="117" viewBox="0 0 119 117" fill="none" xmlns="http://www.w3.org/2000/svg">
<path d="M73.6247 75.9649L77.6467 53.8024L50.4984 44.0508L46.4764 77.7379L73.6247 75.9649Z" fill="#F1C27D"/>
<path d="M100.91 108.718C98.5789 109.72 96.2036 110.624 93.7929 111.427C88.9713 113.035 83.9943 114.249 78.8886 115.059C73.8983 115.854 68.7748 116.257 63.6513 116.257C56.7297 116.257 49.848 115.525 43.1928 114.077C40.5868 113.513 37.9583 112.824 35.3745 112.022C35.1036 111.936 34.8284 111.85 34.5575 111.763C31.352 110.738 28.1998 109.536 25.1675 108.178C24.759 107.998 24.3505 107.814 23.9421 107.618C23.4892 107.415 23.0408 107.199 22.588 106.976C22.0108 106.698 21.438 106.408 20.8653 106.115C18.9474 105.136 17.0605 104.079 15.2579 102.98L15.138 102.909C15.0315 102.843 14.9249 102.78 14.8228 102.713C14.8894 102.404 14.9516 102.122 15.0093 101.872C15.2312 100.889 15.3778 100.349 15.3778 100.349L27.5338 78.2094L30.9214 72.0405L32.573 71.4415L45.0487 66.9205H75.541L85.1619 70.4278C85.1619 70.4278 85.2108 70.5883 85.3085 70.8976C86.2674 73.9312 91.8616 91.1543 100.541 108.005C100.661 108.24 100.786 108.479 100.91 108.718Z" fill="#06DAAE"/>
<path d="M66.7642 60.9268C82.0541 60.9268 94.449 49.9987 94.449 36.5183C94.449 23.0379 82.0541 12.1098 66.7642 12.1098C51.4743 12.1098 39.0793 23.0379 39.0793 36.5183C39.0793 49.9987 51.4743 60.9268 66.7642 60.9268Z" fill="#F1C27D"/>
<path d="M32.6214 71.2314L32.5738 71.4414L24.1333 106.823L24.0603 107.131L23.9427 107.619C23.4885 107.414 23.0406 107.199 22.5895 106.977C22.0113 106.697 21.4395 106.409 20.8645 106.115C18.949 105.137 17.062 104.079 15.2577 102.981L15.1369 102.908C15.0321 102.843 14.9241 102.779 14.8225 102.715C13.4438 101.866 12.1 100.981 10.7881 100.068C10.7785 100.062 10.7722 100.057 10.7626 100.048C8.42141 98.3847 6.16597 96.595 4.00899 94.6933C2.61761 93.4665 1.28022 92.2034 0 90.9067L0.193795 90.1897L0.212855 90.1169L0.454267 89.2038C2.60171 81.2077 9.8668 75.0712 19.0189 73.5252L31.1792 71.4722L32.6214 71.2314Z" fill="#06DAAE"/>
<path d="M118.842 98.3721C115.259 101.061 111.419 103.496 107.365 105.634C106.97 105.845 106.566 106.052 106.162 106.26C104.439 107.137 102.686 107.955 100.91 108.718C98.5789 109.72 96.2037 110.624 93.7929 111.427L93.6064 110.651L84.0742 70.69L85.3085 70.8976L97.6777 72.9878C106.828 74.534 114.096 80.6716 116.24 88.6685L118.607 97.5033L118.842 98.3721Z" fill="#06DAAE"/>
<path d="M98.6455 43.043C97.9262 45.4073 94.3079 55.9722 85.042 58.1955C83.2218 58.6339 78.8797 59.1389 80.0296 58.1955C80.2915 57.9802 80.5446 57.7689 80.7977 57.5613C90.8537 49.2238 94.9561 44.1275 93.0825 32.8149C91.8926 25.6124 78.3425 19.0715 70.7194 18.4217C67.505 18.148 63.4027 19.1067 60.6945 21.5768C56.2236 25.6475 56.9606 38.1425 54.4832 45.4819C53.8173 47.4467 52.9249 49.0438 51.6417 50.0105C50.8426 50.6133 50.332 49.8461 49.9546 48.5896C49.1511 45.9199 48.9424 41.0312 47.8014 42.4127C44.5027 46.4173 47.6459 51.7249 48.5961 53.7723C48.7914 54.1913 48.9912 54.5942 49.191 54.978V54.9818C49.3064 55.2008 49.4263 55.4202 49.5417 55.6278V55.6316C52.7117 61.3307 56.521 63.3701 59.8775 66.9205C61.1961 68.3101 62.4437 69.9266 63.5581 72.0875C64.3217 73.5673 64.8722 75.0546 65.2497 76.5145C67.172 83.8344 64.89 90.485 64.2728 92.2934C62.9809 96.0591 60.761 102.529 54.2479 106.181C46.0698 110.769 38.6066 106.726 35.0371 111.082C34.9926 111.133 34.9526 111.184 34.9127 111.235C34.7795 111.411 34.6596 111.587 34.5575 111.763C31.352 110.738 28.1998 109.536 25.1675 108.178C24.759 107.998 24.3505 107.814 23.9421 107.618C23.4892 107.414 23.0408 107.199 22.588 106.976C22.5702 106.671 22.5524 106.366 22.5391 106.056C22.2772 100.76 22.6723 94.9394 24.1685 89.1344C25.1275 85.4277 26.0777 81.7518 27.5338 78.2094C28.484 75.9002 29.6471 73.6452 31.1788 71.4729C32.4043 69.7271 33.8605 68.0321 35.6275 66.4037C39.5079 62.8299 42.9576 61.3387 43.5037 57.5651C44.285 52.179 37.9229 50.5586 35.6275 42.4127C34.0603 36.8427 32.422 28.8145 34.0114 23.4048C35.5121 18.2928 36.8174 13.8578 41.1728 9.51267C42.2206 8.47139 50.8204 1.22985 60.7832 0.0398704C65.3739 -0.504086 69.4674 4.6786 75.0171 5.79404C81.397 7.07423 85.0509 7.80625 88.6205 10.2133C94.6542 14.2764 96.3545 20.3517 97.9307 25.9961C99.165 30.4116 100.763 36.1226 98.6455 43.043Z" fill="#2F2E41"/>
</svg>
