<svg width="400" height="400" viewBox="0 0 400 400" fill="none" xmlns="http://www.w3.org/2000/svg">
<path d="M104.626 73.286C102.352 73.846 100.31 77.486 101.826 78.014C102.898 78.39 102.788 76.466 105.126 75.558C106.482 75.03 106.084 72.928 104.626 73.286Z" fill="#191919"/>
<path d="M107.236 82C108.016 81.138 107.16 77.962 105.702 78.93C104.642 79.75 105.894 83.49 107.236 82Z" fill="#191919"/>
<path d="M81.142 96.4C81.434 101.001 81.434 105.615 81.142 110.216C81.142 111.382 82.676 111.416 82.942 110.216C83.5076 105.722 83.6923 101.187 83.494 96.662C86.948 95.924 89.726 92.062 90.816 89.676C91.3765 90.4463 92.2117 90.9716 93.1487 91.1432C94.0857 91.3148 95.0529 91.1196 95.85 90.598C96.878 89.646 96.096 88.358 94.806 88.818C93.806 89.172 93.006 88.57 92.474 87.666C91.77 86.482 90.936 81.98 92.688 81.142C94.338 80.354 96.852 82.342 97.232 80.636C98.2979 77.2941 98.53 73.7422 97.908 70.29C103.818 70.29 117.246 68.402 118.308 56.674C119.532 43.15 77.094 53.364 70.324 62.584C64.058 71.114 75.784 93.104 81.142 96.4Z" fill="#191919"/>
<path d="M111.718 88.422C113.668 88.284 113.918 86.594 113.668 84.86C112.911 80.0247 111.528 75.3084 109.554 70.83C109.466 70.6363 109.306 70.4839 109.109 70.4047C108.911 70.3254 108.691 70.3252 108.493 70.4042C108.295 70.4833 108.136 70.6354 108.047 70.829C107.959 71.0226 107.948 71.2428 108.018 71.444C109.486 76.1973 110.706 81.0239 111.672 85.904C111.746 86.274 111.78 86.242 111.396 86.288C109.828 86.476 107.432 85.574 107.596 88.76C107.572 89.5093 107.618 90.2593 107.734 91C106.137 91.2935 104.489 90.9581 103.134 90.064C101.988 89.298 101.214 90.264 101.506 91.6C101.813 93.0019 102.565 94.2672 103.649 95.2074C104.734 96.1476 106.093 96.7125 107.524 96.818C107.524 98.676 107.432 100.764 105.324 101.316C102.85 101.622 100.343 101.534 97.896 101.056C97.04 100.898 96.446 102.156 97.312 102.59C98.0994 102.979 98.9442 103.238 99.814 103.358C100.012 105.99 100.418 108.602 101.026 111.17C101.046 111.297 101.091 111.418 101.16 111.526C101.229 111.633 101.32 111.726 101.427 111.797C101.534 111.868 101.654 111.915 101.78 111.937C101.906 111.959 102.036 111.954 102.16 111.923C102.284 111.892 102.401 111.836 102.502 111.757C102.603 111.679 102.687 111.58 102.748 111.468C102.809 111.355 102.846 111.231 102.856 111.103C102.866 110.975 102.85 110.847 102.808 110.726C102.438 108.424 101.978 105.982 101.748 103.558C103.291 103.743 104.857 103.613 106.348 103.174C109.418 102.006 109.632 99.09 109.418 96.266C109.418 95.59 109.418 94.638 108.19 94.838C108.19 94.838 105.886 95.484 103.86 92.398C105.056 92.9141 106.367 93.1045 107.66 92.95C110.562 92.596 109.67 91.656 109.67 88.59C110.342 88.4408 111.031 88.3842 111.718 88.422Z" fill="#191919"/>
<path d="M31.8 122.468C31.9708 122.76 32.2505 122.972 32.5776 123.057C32.9047 123.143 33.2523 123.095 33.544 122.924C33.8358 122.753 34.0477 122.473 34.1332 122.146C34.2187 121.819 34.1708 121.472 34 121.18C32.2 118.4 29.856 117.402 27.86 115.746C26.2145 114.074 24.8442 112.151 23.8 110.05C22.742 108.516 21.414 108.916 22.142 110.972C24.088 116.43 26.618 117.046 31.8 122.468Z" fill="#191919"/>
<path d="M37.01 107.426C36.5003 102.58 36.676 97.6854 37.5321 92.888C37.8401 91.112 36.942 90.798 35.996 92.46C34.452 95.17 34.1381 104.498 35.1521 107.686C35.4841 108.732 37.056 108.238 37.01 107.426Z" fill="#191919"/>
<path d="M32.728 113.028C30.41 104.478 31.072 101.07 31.852 92.888C31.944 91.922 30.602 91.956 30.318 92.704C28.042 98.674 28.644 107.67 30.778 113.612C30.9027 113.805 31.0865 113.952 31.3018 114.031C31.5171 114.11 31.7524 114.118 31.9722 114.052C32.192 113.986 32.3845 113.851 32.5208 113.666C32.6571 113.481 32.7298 113.257 32.728 113.028Z" fill="#191919"/>
<path d="M42.336 106.55C42.3431 102.994 42.6717 99.4465 43.318 95.95C43.674 94.106 42.598 93.004 41.614 95.35C40.5085 98.9057 40.0665 102.634 40.31 106.35C40.462 108.8 42.312 109.084 42.336 106.55Z" fill="#191919"/>
<path d="M49.55 120.918C49.97 114.702 46.472 110.878 47.786 100.964C47.938 99.812 46.786 98.91 46.144 100.964C44.09 107.544 47.014 115.306 47.678 120.764C47.884 122.466 49.4 123.082 49.55 120.918Z" fill="#191919"/>
<path d="M205.322 208.4C200.936 207.053 196.939 204.668 193.672 201.446C189.382 196.536 187.252 205.52 204.786 210.046C205.004 210.117 205.242 210.099 205.446 209.994C205.651 209.89 205.806 209.709 205.877 209.491C205.948 209.273 205.93 209.035 205.825 208.831C205.721 208.626 205.54 208.471 205.322 208.4Z" fill="#191919"/>
<path d="M201.654 211.714C197.706 210.465 193.915 208.765 190.356 206.648C189.756 206.286 188.094 206.848 189.466 208.336C192.882 211.019 196.942 212.76 201.24 213.386C203.434 213.42 203.512 212.2 201.654 211.714Z" fill="#191919"/>
<path d="M183.188 198.498C182.742 199.402 184.052 200.498 184.724 199.586C188.462 194.524 195.96 198.052 200.61 194.614C200.884 194.447 201.08 194.178 201.156 193.866C201.232 193.554 201.181 193.225 201.015 192.95C200.848 192.676 200.58 192.479 200.268 192.402C199.956 192.326 199.627 192.376 199.352 192.542C194.468 195.314 186.058 192.664 183.188 198.498Z" fill="#191919"/>
<path d="M189.696 193.416C190.91 193.278 191.468 192.592 191.016 191.882C190.36 190.846 187.76 191.426 186.416 191.636C183.772 192.036 181.266 191.864 181.182 193.064C181.032 195.118 186.856 193.74 189.696 193.416Z" fill="#191919"/>
<path d="M191.278 216.918C185.332 214.688 179.529 212.093 173.902 209.15C173.152 208.762 171.702 209.272 173.118 210.684C175.392 212.94 187.348 217.854 190.718 218.36C191.478 218.36 192.12 217.228 191.278 216.918Z" fill="#191919"/>
<path d="M199.09 215.03C194.49 213.768 192.29 213.642 187.69 211.008C186.676 210.426 185.63 211.826 186.63 212.542C190.222 215.105 194.499 216.532 198.91 216.64C199.087 216.605 199.248 216.514 199.37 216.381C199.492 216.248 199.569 216.08 199.589 215.901C199.609 215.722 199.571 215.541 199.482 215.384C199.392 215.227 199.255 215.103 199.09 215.03Z" fill="#191919"/>
<path d="M305.128 94.316C305.128 100.61 308.182 103 311.162 107.856C312.2 109.548 313.744 108.656 313.494 107.486C312.798 104.23 308.06 102.712 306.848 94.224C306.827 94.0027 306.721 93.7982 306.552 93.6531C306.384 93.5081 306.166 93.4337 305.944 93.4456C305.722 93.4575 305.513 93.5547 305.361 93.7169C305.209 93.879 305.126 94.0937 305.128 94.316Z" fill="#191919"/>
<path d="M319.236 91.354C319.866 86.054 317.426 77.224 314.876 72.766C314.761 72.5567 314.57 72.4001 314.342 72.3292C314.114 72.2583 313.868 72.2788 313.655 72.3862C313.442 72.4937 313.279 72.6797 313.2 72.9051C313.122 73.1304 313.134 73.3774 313.234 73.594C315.626 79.1671 316.864 85.1672 316.872 91.232C316.834 93.12 319 93.378 319.236 91.354Z" fill="#191919"/>
<path d="M329.6 107.226C328.082 99.056 329.446 84.196 327.144 76.91C326.824 75.896 324.944 75.374 325.334 77.294C327.416 87.294 325.636 97.632 327.282 107.426C327.524 108.884 329.876 108.73 329.6 107.226Z" fill="#191919"/>
<path d="M323.672 92.09C324.746 88.928 322.766 77.77 321.752 74.914C320.738 72.058 318.806 71.914 319.804 75.836C321.108 81.0966 321.731 86.5027 321.66 91.922C321.71 92.1409 321.829 92.3381 321.999 92.4851C322.169 92.6322 322.381 92.7215 322.605 92.7402C322.829 92.7589 323.053 92.706 323.244 92.5891C323.436 92.4722 323.586 92.2975 323.672 92.09Z" fill="#191919"/>
<path d="M308.736 76.848C311.701 83.1289 312.745 90.1459 311.736 97.018C311.51 98.552 313.804 98.98 314.022 97.494C315.132 90.1172 313.833 82.579 310.316 76C310.204 75.7905 310.012 75.6342 309.785 75.5656C309.557 75.4969 309.312 75.5216 309.102 75.634C308.892 75.7465 308.736 75.9375 308.668 76.1652C308.599 76.3929 308.624 76.6385 308.736 76.848Z" fill="#191919"/>
<path d="M295.504 71.568C291.32 63.72 280.704 62.748 273.048 65.274C265.666 67.706 262.822 76.42 262.302 83.556C261.822 90.128 262.186 100.444 264.144 105.814C264.835 108.131 266.194 110.192 268.05 111.74C269.907 113.288 272.179 114.255 274.582 114.518V119.918C274.613 120.142 274.725 120.347 274.895 120.496C275.066 120.645 275.285 120.726 275.511 120.726C275.737 120.726 275.956 120.645 276.127 120.496C276.297 120.347 276.409 120.142 276.44 119.918C276.64 118.118 276.67 116.296 276.778 114.484C280.43 114.084 285.696 111.122 286.648 107.27C286.718 107.068 286.707 106.847 286.616 106.653C286.526 106.459 286.363 106.308 286.163 106.232C285.964 106.157 285.742 106.161 285.546 106.246C285.349 106.331 285.194 106.489 285.112 106.686C281.858 113.686 268.488 115.758 265.296 101.698C263.696 91.374 262.708 74.884 271.158 68.788C275.654 65.546 289.502 64.588 293.616 72.764C295.406 77.2719 295.45 82.2857 293.738 86.824C292.676 86.5069 291.535 86.5948 290.534 87.0706C289.533 87.5464 288.744 88.3764 288.32 89.4C287.78 90.35 289.074 91.306 289.72 90.414C294.232 84.146 296.63 97.414 291.944 97.52C291.378 97.534 289.29 96.662 289.29 98.32C289.29 99.18 290.18 99.748 290.962 99.948C290.801 105.618 291.527 111.279 293.112 116.726C293.184 116.962 293.347 117.161 293.564 117.279C293.781 117.397 294.036 117.424 294.274 117.356C294.512 117.287 294.713 117.128 294.834 116.913C294.955 116.697 294.987 116.443 294.922 116.204C293.794 110.844 293.096 105.403 292.836 99.932C297.732 98.796 297.318 91.244 295.614 88.482C296.84 87.086 299.056 78.226 295.504 71.568Z" fill="#191919"/>
<path d="M280.4 96.6C280.066 95.064 278.698 94.928 278.082 95.94C277.334 97.0494 276.3 97.9359 275.09 98.5059C273.879 99.0759 272.538 99.3081 271.206 99.178C270.422 99.178 270.106 99.882 270.422 100.714C273.2 108 282.344 105.562 280.4 96.6ZM278.696 98.426C278.85 103.4 274.828 104.704 272.632 101.204C273.776 101.165 274.901 100.9 275.942 100.424C276.982 99.9476 277.919 99.27 278.696 98.43V98.426Z" fill="#191919"/>
<path d="M275.488 91.43C277.022 91.324 276.888 86.888 275.074 87.348C273.612 87.72 273.692 91.554 275.488 91.43Z" fill="#191919"/>
<path d="M266.954 87.4C265.42 87.698 265.096 91.372 266.954 91.284C268.61 91.2 268.35 87.122 266.954 87.4Z" fill="#191919"/>
<path d="M278.2 81.53C274.4 80.454 273.12 83.864 275.714 83.602C276.28 83.4653 276.872 83.4694 277.436 83.6141C278.001 83.7588 278.521 84.0396 278.952 84.432C281.288 86.564 282.518 82.756 278.2 81.53Z" fill="#191919"/>
<path d="M267.95 81.622C267.434 81.6236 266.926 81.7451 266.465 81.9769C266.005 82.2088 265.604 82.5447 265.296 82.958C264.436 83.924 265.296 85.03 265.986 84.384C266.257 84.0699 266.604 83.8304 266.993 83.6883C267.383 83.5462 267.803 83.5061 268.212 83.572C269.47 83.678 270.024 81.618 267.95 81.622Z" fill="#191919"/>
<path d="M273.662 96.712C274.522 96.442 274.766 95.056 273.662 95.068C272.574 95.0885 271.487 94.9858 270.422 94.762C270.882 92.136 271.884 88.614 271.206 88.268C269.968 87.64 268.546 93.58 268.396 94.624C267.926 97.892 273.156 96.868 273.662 96.712Z" fill="#191919"/>
<path d="M265.632 282.83C271.298 285.01 280.016 286.13 289.256 286.576C287.056 275.376 284.43 262.524 284.298 251.27C284.286 250.212 285.82 249.89 285.942 250.994C287.344 263.022 289.538 274.943 292.51 286.682C302.659 287.003 312.818 286.727 322.934 285.854C323.764 276.214 324.868 243.842 325.482 218.574C307.682 225.85 274.828 225.544 255.624 220.11C258.096 241.784 261.964 266.068 265.632 282.83Z" fill="#191919"/>
<path d="M89.338 254.662C87.4103 254.931 85.4575 254.973 83.52 254.786C90.0087 268.082 95.5816 281.806 100.2 295.862C107 318.364 113.064 362.006 113.448 369.358C115.628 370.524 136.288 369.942 141.37 369.358C141.37 364.416 144.392 308.684 142.904 288.358C142.104 277.522 137.704 244.442 134.262 219.666C111.13 226.62 80.538 226.928 57.804 217.686C59.568 245.854 62.628 272.396 56.974 287.928C48.8053 308.205 39.1282 327.841 28.024 346.672C29.192 348.132 44.172 357.418 52.754 362.392C77.62 327.392 91.954 306.578 96.64 293.914C92.5985 280.371 87.4277 267.192 81.182 254.514C78.6527 254.095 76.1698 253.431 73.768 252.534C72.862 252.194 72.912 250.51 74.35 250.998C79.2143 252.57 84.3153 253.282 89.424 253.102C90.444 253.076 90.644 254.474 89.338 254.662Z" fill="#191919"/>
<path d="M49.2 362.4C49.043 362.138 48.7885 361.95 48.4923 361.875C48.1962 361.801 47.8828 361.848 47.621 362.005C47.3593 362.162 47.1706 362.417 47.0965 362.713C47.0224 363.009 47.069 363.322 47.226 363.584C47.348 363.784 60.28 384.466 59.086 385.762C57.538 387.44 25.798 367.152 23.058 362.736C21.314 359.924 26.27 356.612 29.582 352.238C30.37 351.198 29.026 349.544 27.956 350.472C25.5686 352.629 23.427 355.044 21.57 357.672C17.328 363.428 23.552 367.128 27.602 370.166C35.2806 375.875 43.3489 381.04 51.748 385.624C56.442 388.212 64.748 391.038 60.548 382.062C57.2896 375.219 53.4951 368.645 49.2 362.4Z" fill="#191919"/>
<path d="M161.33 381.6C154.618 377.744 147.624 374.401 140.408 371.6C140.242 371.53 140.064 371.494 139.884 371.494C139.703 371.494 139.525 371.53 139.359 371.599C139.193 371.669 139.042 371.771 138.916 371.899C138.79 372.028 138.691 372.18 138.624 372.348C138.558 372.515 138.525 372.694 138.529 372.874C138.532 373.054 138.572 373.232 138.645 373.397C138.718 373.561 138.823 373.71 138.954 373.833C139.085 373.957 139.239 374.053 139.408 374.116C144.882 376.266 150.26 378.692 155.48 381.3C157.85 382.484 166.224 386.274 158.902 386.458L117.258 387.472C112.438 387.578 112.458 386.826 113.404 382.298C114.109 379.17 115.138 376.125 116.474 373.21C116.994 372.034 115.126 370.916 114.464 372.076C112.855 374.945 111.707 378.05 111.064 381.276C109.064 390.926 113.198 390.056 120.78 389.902L160.152 389.026C166.364 388.868 166.3 385.02 161.33 381.6Z" fill="#191919"/>
<path d="M218.846 343.97C259.69 350.22 312.646 354.428 354.126 357.308C355.8 357.424 355.798 354.822 354.126 354.708C308.948 351.776 259.36 346.708 219.046 341.89C217.94 341.764 217.664 343.788 218.846 343.97Z" fill="#191919"/>
<path d="M375.586 57.8C375.36 47.224 374.412 28.334 361.478 25.934C360.418 25.734 359.946 27.458 360.942 27.76C372.23 31.188 372.5 48.114 373.114 58.078C373.122 58.1129 373.122 58.1491 373.114 58.184C374.142 165.128 377.59 247.296 376.798 352.046C376.704 364.326 371.15 375.886 362.154 378.786C361.262 379.072 361.418 380.734 362.538 380.566C374.338 378.794 379.868 362.652 379.852 352.076C379.704 253.6 377.812 162.316 375.586 57.8Z" fill="#191919"/>
<path d="M276.746 35.648C271.004 36.72 272.146 46.848 277.484 46.27C283.332 45.63 283.178 34.448 276.746 35.648ZM277.022 38.12C279.386 37.554 280.19 42.398 277.36 43.492C275.154 44.346 274.966 38.612 277.022 38.12Z" fill="#191919"/>
<path d="M215.96 62.558C258.586 57.758 303.444 51.246 346.574 45.672C348.384 45.438 348.374 42.6 346.574 42.832C303.232 48.452 254.896 54.418 215.622 60.086C214.226 60.288 214.564 62.714 215.96 62.558Z" fill="#191919"/>
<path d="M361.264 56.954C361.092 34.666 362.046 14.292 332.482 18.826C299.97 23.81 266.398 30.226 233.966 34.314C205.982 37.834 207.514 56.848 207.656 81.162C207.834 111.524 208.056 141.142 208.438 173.508C208.452 174.628 210.438 174.536 210.418 173.508C209.902 140.152 210.274 107.508 210.25 75.174C210.234 53.6 210.8 40.2 234.472 36.8C267.544 32.048 300.554 26.442 333.602 21.45C355.338 18.166 358.52 30.86 358.684 50.43C359.532 150.59 361.538 250.734 362.722 350.892C362.982 372.95 358.224 382.664 334.678 379.412C301.322 374.812 264.838 373.474 232.508 367.838C212.554 364.36 212.526 349.418 212.552 333.27C212.614 295.954 211.716 255.112 211.018 217.056C210.996 215.828 209.158 216.012 209.16 217.178C209.236 254.832 209.49 296.276 209.898 334.622C210.078 351.622 211.432 367.068 232.278 370.402C266.048 375.802 300.432 378.08 335.122 382.068C357.702 384.668 365.922 375.606 365.722 352.228C364.85 253.71 362.02 155.332 361.264 56.954Z" fill="#191919"/>
<path d="M331.04 109.774C326.972 109.574 315.828 111.816 311.944 112.676C311.307 125.793 312.595 138.932 315.766 151.676C316.046 152.626 314.428 152.89 314.108 152.014C310.938 143.334 309.626 130.292 309.166 120.944C305.694 118.811 301.867 117.321 297.868 116.544C294.092 118.508 283.086 129.714 278.62 131.264C275.902 129.314 274.02 127.18 271.42 120.212C253.998 125.246 240.582 151.372 234.764 159.232C228.946 167.092 218.048 176.232 201.164 189.302C205.181 194.841 208.29 200.985 210.374 207.502C225.131 201.846 238.85 193.786 250.974 183.648C251.701 171.087 253.381 158.599 256 146.292C256.268 145.062 257.8 145.31 257.536 146.522C253.222 173.538 252.47 189.962 255.336 217.056C274.018 222.596 308.336 222.856 325.624 215.29C325.854 204.668 325.992 195.642 325.962 190.576C317.336 187.26 307.524 169.234 303.52 161.412C303.088 160.568 304.26 159.766 304.778 160.568C309.104 167.242 319.744 186.006 327.236 188.106C333.606 189.89 340.694 185.128 342.048 176.286C343.516 166.786 335.306 117.296 331.04 109.774Z" fill="#06DAAE"/>
<path d="M147.914 163C143.114 154.924 126.822 116.074 104.458 112.682C95.258 117.042 83.076 117.626 78.87 111.93C63.336 115.27 55.1 132.276 51.8 146.322C51.522 147.504 49.942 147.304 50.264 146.108C51.1798 141.332 52.5949 136.665 54.486 132.184C53.994 130.45 53.364 128.086 52.444 124.326C49.244 123.45 36.602 124.618 31.798 125.63C29.764 159.4 37.93 181.18 42.858 187.736C44.938 190.504 50.534 191.958 54.938 191.536C55.1376 172.672 57.6695 153.905 62.476 135.662C62.5209 135.479 62.6365 135.321 62.7976 135.224C62.9587 135.126 63.152 135.096 63.335 135.141C63.518 135.186 63.6757 135.302 63.7734 135.463C63.8712 135.624 63.9009 135.817 63.856 136C57.514 161.964 56.182 188 57.716 214.538C73.774 222.398 107.036 225.022 133.96 216.64C132.656 207.278 131.536 199.372 130.89 194.706C115.368 182.706 110.988 179.062 102.124 158.664C101.678 157.636 102.938 156.96 103.46 157.972C108.06 166.894 112.64 176.196 120.346 182.748C134.811 195.678 151.804 205.463 170.248 211.484C171.979 203.901 175.519 196.849 180.564 190.93C176.956 188.474 151.17 168.486 147.914 163Z" fill="#06DAAE"/>
<path d="M242.116 291.748C220.242 291.748 223.698 334.456 243.316 335.726C265.634 337.172 262.01 291.748 242.116 291.748ZM239.37 302.924C240.53 299.626 244.404 299.592 245.51 303.292C246.124 305.348 246.4 313.178 245.34 315.28C245.029 315.747 244.602 316.126 244.101 316.379C243.599 316.633 243.041 316.752 242.48 316.726C241.92 316.7 241.375 316.529 240.9 316.23C240.424 315.931 240.035 315.514 239.768 315.02C238.554 312.838 238.47 305.474 239.37 302.924ZM243.452 323.032C243.544 324.812 243.452 326.516 243.698 328.388C243.944 330.26 241.58 330.062 241.298 328.62C241.062 326.716 240.985 324.795 241.068 322.878C234.528 321.574 233.798 313.478 234.406 308.756C234.514 307.912 236.11 307.79 236.156 308.756C236.384 313.556 235.864 319.502 242.142 320.356C248.42 321.21 248.612 312.576 248.528 308.368C248.496 306.742 250.444 306.834 250.528 308.368C250.8 313.93 250.866 322.448 243.452 323.032Z" fill="#06DAAE"/>
<path d="M280.982 293.974C257.956 294.702 260.664 336.108 280.338 338.398C305.18 341.288 303.132 293.276 280.982 293.974ZM281.336 323.278C279.908 324.322 271.758 322.908 270.852 321.82C269.486 320.176 269.47 311.58 270.622 310.552C271.774 309.524 281.486 311.106 282.118 312.456C282.632 313.55 282.518 322.456 281.306 323.338L281.336 323.278ZM289.916 326.5C288.212 326.5 284.084 318.934 284.068 317.858C284.052 316.782 289.41 310.306 290.868 310.782C291.958 311.212 291.222 326.516 289.886 326.562L289.916 326.5Z" fill="#06DAAE"/>
<path d="M320.894 296.506C298.604 295.558 297.974 340.984 321.798 341.306C344.256 341.6 345.1 297.538 320.894 296.506ZM333.588 318.856C333.91 319.9 333.694 323.616 332.36 324.582C329.811 325.466 327.019 325.34 324.56 324.23C323.888 323.642 324.16 320.454 324.206 319.946C324.472 317.464 315.764 317.674 316.026 319.746C316.288 321.818 316.146 323.398 315.55 323.8C314.688 324.38 310.176 324.628 308.994 323.354C308.238 321.579 308.092 319.603 308.58 317.736C312.724 310.154 331.422 311.488 333.616 318.856H333.588Z" fill="#06DAAE"/>
<path d="M179.442 20.2C178.478 19.536 177.296 20.98 178.138 21.736C180.222 23.608 190.878 33.002 193.488 34.016C193.675 34.0638 193.871 34.0565 194.054 33.995C194.237 33.9336 194.398 33.8206 194.518 33.6697C194.638 33.5188 194.712 33.3364 194.731 33.1445C194.75 32.9526 194.713 32.7593 194.624 32.588C193.15 30.322 181.706 21.764 179.442 20.2Z" fill="#06DAAE"/>
<path d="M209.4 23.6C209.558 22.068 206.164 12.446 205.532 10.584C205.425 10.3787 205.255 10.2135 205.047 10.1133C204.838 10.0131 204.603 9.98331 204.376 10.0284C204.149 10.0735 203.943 10.1911 203.788 10.3634C203.634 10.5357 203.54 10.7535 203.52 10.984C203.538 13.394 205.976 22.65 207.696 24.184C207.828 24.3178 207.996 24.4115 208.179 24.4545C208.362 24.4975 208.553 24.4879 208.731 24.4269C208.909 24.3659 209.066 24.256 209.185 24.1097C209.303 23.9634 209.378 23.7868 209.4 23.6Z" fill="#06DAAE"/>
<path d="M187.348 50.692C186.028 49.97 174.7 51.152 172.858 51.644C172.638 51.7175 172.449 51.8609 172.318 52.0524C172.188 52.2439 172.124 52.4729 172.136 52.7043C172.148 52.9357 172.235 53.1568 172.385 53.3337C172.534 53.5106 172.738 53.6337 172.964 53.684C174.254 53.824 186.058 53.546 187.424 52.502C187.576 52.4014 187.699 52.2632 187.782 52.1009C187.865 51.9386 187.904 51.7576 187.897 51.5755C187.889 51.3935 187.835 51.2165 187.739 51.0617C187.642 50.9069 187.508 50.7795 187.348 50.692Z" fill="#06DAAE"/>
</svg>
