<svg width="117" height="113" viewBox="0 0 117 113" fill="none" xmlns="http://www.w3.org/2000/svg">
<path d="M57.418 62.5966C71.8502 62.5966 83.5499 52.0596 83.5499 39.0616C83.5499 26.0636 71.8502 15.5267 57.418 15.5267C42.9857 15.5267 31.286 26.0636 31.286 39.0616C31.286 52.0596 42.9857 62.5966 57.418 62.5966Z" fill="#F1C27D"/>
<path d="M35.7885 67.8666L41.2359 55.329L69.3806 51.5132L72.4046 79.2667L43.9572 79.8118L35.7885 67.8666Z" fill="#F1C27D"/>
<path d="M83.8031 43.404C83.4639 44.6277 82.7783 47.5413 81.7077 47.5556C80.833 47.5671 79.9958 34.9268 80.8695 32.836C81.8732 30.4341 79.2357 27.3957 77.2488 25.8359C73.6765 23.0315 65.7467 29.0534 57.6833 26.3254C57.4696 26.2532 57.5122 26.2613 54.9659 25.3465C47.1309 22.531 46.719 22.4498 46.2701 22.4096C42.472 22.0712 37.8367 24.8704 35.9439 28.2833C33.9763 31.831 35.6203 34.874 33.77 43.457C33.5544 44.4575 33.2157 45.8833 32.683 45.9044C31.7091 45.9426 30.7581 41.2577 30.509 40.0307C29.4656 34.8898 28.4596 29.9334 30.509 24.3675C30.7326 23.7604 32.1104 21.5071 34.8569 17.0254C38.8137 10.569 40.8037 7.32862 41.3788 6.74641C45.5032 2.56914 53.0106 -1.2415 59.3138 0.383233C62.4996 1.20444 61.9284 2.52469 65.8356 3.80955C72.7986 6.09918 78.8502 3.29904 79.9663 5.27798C80.5575 6.32623 78.9033 7.19047 78.8793 9.19378C78.8381 12.6311 83.6652 13.6244 86.4881 17.0254C88.0056 18.8537 90.6031 18.8734 83.8031 43.404Z" fill="black"/>
<path d="M116.177 88.5799C115.124 89.6456 114.032 90.6895 112.9 91.709C97.6955 105.402 77.4797 112.944 55.9778 112.944C37.3932 112.944 19.7709 107.31 5.51394 96.9392C5.50485 96.9339 5.49879 96.9283 5.48978 96.92C3.59833 95.5466 1.7674 94.0856 0 92.5429C0.0332471 92.3031 0.0696002 92.0659 0.108906 91.8314C0.357085 90.2506 0.632525 88.7433 0.941143 87.3561C3.46815 75.9851 36.7183 64.0472 37.5838 63.7363C37.5959 63.7336 37.602 63.731 37.602 63.731C37.602 63.731 41.8812 77.9366 60.2176 77.754C72.7072 77.6313 70.2862 63.731 70.2862 63.731C70.2862 63.731 70.4375 63.7581 70.722 63.8127C74.3293 64.5023 99.3752 69.4573 109.256 76.2196C112.267 78.28 114.428 82.6683 115.981 87.9012C116.047 88.1248 116.111 88.3537 116.177 88.5799Z" fill="#06DAAE"/>
</svg>
