<svg width="400" height="400" viewBox="0 0 400 400" fill="none" xmlns="http://www.w3.org/2000/svg">
<path d="M245.2 105.776C240.45 104.336 233.59 101.396 232.414 100.976C227.604 80.2859 223.834 64.1759 221.214 42.9379C221.038 41.4959 219.164 41.8819 219.322 43.2619C221.52 62.3934 225.075 81.3444 229.96 99.9719C230.646 102.486 230.624 102.474 232.95 103.572C236.827 105.189 240.829 106.49 244.916 107.46C246.548 107.894 246.6 106.2 245.2 105.776ZM363.456 86.1099C360.774 63.5759 357.218 41.2179 353.022 20.6779C317.368 23.6599 281.546 28.7299 246.326 34.8919C239.126 36.1499 231.494 38.8259 224.386 40.7899C223.09 41.1479 222.352 39.6759 223.664 39.1219C230.796 36.4666 238.117 34.3494 245.566 32.7879C258.706 30.2039 316.366 21.6959 350.662 18.3759C354.714 17.9759 354.862 17.9979 355.626 21.4319C359.542 38.8319 364.07 67.0139 366.168 84.7659C366.594 88.3659 366.072 88.2219 360.968 89.4299C333.85 95.8519 306.74 100.736 278.368 106.408C278.087 106.451 277.801 106.383 277.569 106.219C277.337 106.054 277.179 105.806 277.127 105.527C277.075 105.247 277.133 104.959 277.29 104.722C277.447 104.485 277.69 104.319 277.968 104.258C306.518 98.0719 334.888 92.9659 363.46 86.1099H363.456ZM247.726 38.6379C249.684 52.3439 256.096 79.2939 258.526 93.0919C258.698 94.0639 256.926 94.5819 256.634 93.6119C252.922 80.9759 246.86 48.0119 245.818 38.9039C245.694 37.8139 247.572 37.5559 247.726 38.6379ZM341.512 103.82C341.834 109.231 341.834 114.657 341.512 120.068C341.516 120.182 341.498 120.295 341.457 120.401C341.417 120.507 341.355 120.604 341.276 120.686C341.197 120.768 341.102 120.832 340.997 120.876C340.892 120.92 340.779 120.942 340.666 120.941C340.552 120.94 340.44 120.916 340.335 120.871C340.231 120.825 340.138 120.759 340.06 120.676C339.982 120.593 339.922 120.495 339.883 120.388C339.844 120.281 339.828 120.167 339.834 120.054C339.398 114.583 339.293 109.09 339.52 103.606C339.538 102.294 341.49 102.554 341.512 103.82ZM281.29 134.074C281.278 133.814 281.167 133.568 280.979 133.388C280.79 133.207 280.54 133.107 280.279 133.107C280.018 133.107 279.768 133.207 279.579 133.388C279.391 133.568 279.28 133.814 279.268 134.074C278.942 145.556 279.142 158.326 279.684 169.78C279.746 171.098 281.45 171.18 281.5 169.848C281.918 158.4 281.74 145.554 281.29 134.074ZM262.29 173.966C262.216 172.69 260.342 172.458 260.24 173.818C259.805 180.94 260.022 188.087 260.89 195.17C260.945 195.406 261.082 195.616 261.276 195.761C261.471 195.906 261.711 195.977 261.953 195.962C262.196 195.947 262.425 195.846 262.6 195.678C262.775 195.51 262.885 195.285 262.91 195.044C263 188.6 262.668 180.444 262.288 173.966H262.29ZM340.348 189.048C340.286 187.928 338.402 188.032 338.382 189.154C338.219 193.172 338.295 197.197 338.608 201.206C338.746 202.366 340.528 202.228 340.608 201.1C340.76 197.081 340.672 193.057 340.346 189.048H340.348ZM317.314 176.296C317.276 175.158 315.34 175.216 315.298 176.358C315.086 182.326 314.884 189.48 315.276 195.39C315.352 196.542 317.218 196.464 317.296 195.328C317.704 189.426 317.506 182.266 317.312 176.296H317.314ZM308.55 129.114C322.762 122.734 349.35 130.776 349.462 149.114C349.508 157.036 343.098 164.314 334.932 163.638C335.436 167.016 336.921 170.171 339.204 172.712C340.676 174.474 340.324 175.666 337.336 175.328C330.474 174.548 321.89 169.18 319.378 163.068C309.9 161.38 301.864 156.726 299.278 147.81C298.247 144.099 298.622 140.138 300.333 136.687C302.044 133.236 304.97 130.539 308.548 129.114H308.55ZM336.722 147.586C336.955 148.071 337.071 148.603 337.062 149.141C337.053 149.678 336.919 150.206 336.67 150.683C336.422 151.16 336.065 151.572 335.63 151.887C335.194 152.202 334.691 152.411 334.16 152.498C333.515 152.514 332.878 152.353 332.318 152.033C331.759 151.712 331.298 151.244 330.986 150.679C330.674 150.114 330.523 149.475 330.55 148.831C330.576 148.186 330.779 147.561 331.136 147.024C331.491 146.599 331.944 146.267 332.457 146.057C332.97 145.848 333.526 145.767 334.077 145.823C334.628 145.878 335.157 146.068 335.618 146.375C336.079 146.683 336.457 147.098 336.72 147.586H336.722ZM325.802 143.85C326.251 144.166 326.611 144.593 326.844 145.09C327.077 145.588 327.175 146.137 327.13 146.685C327.085 147.232 326.898 147.758 326.587 148.211C326.275 148.663 325.851 149.026 325.356 149.264C324.402 149.516 323.387 149.382 322.531 148.89C321.676 148.398 321.049 147.589 320.786 146.638C320.718 146.029 320.832 145.413 321.113 144.868C321.394 144.324 321.83 143.874 322.366 143.576C322.901 143.278 323.513 143.145 324.124 143.194C324.735 143.243 325.318 143.471 325.8 143.85H325.802ZM313.026 141.304C316.012 140.062 319.138 144.526 315.922 146.69C312.036 149.304 308.948 143 313.024 141.304H313.026ZM336.124 172.664C330.617 171.643 325.712 168.549 322.418 164.02C320.346 161.308 322.166 161.654 318.218 160.536C312.18 158.83 306.204 156.176 303.08 150.38C301.34 147.468 300.804 143.992 301.585 140.691C302.367 137.39 304.404 134.524 307.264 132.7C318.264 125.432 341.916 130.846 346.196 144.51C348.55 152.022 344.542 161.046 335.878 161.034C333.766 161.034 332.508 160.704 332.63 163.42C332.95 166.757 334.155 169.949 336.122 172.664H336.124ZM249.58 329.218C250.514 329.172 251.144 327.862 249.758 327.504C246.379 326.905 243.206 325.466 240.53 323.318C237.842 321.14 236.254 320.076 236.212 324.45C236.175 327.967 236.913 331.449 238.374 334.648C239.835 337.847 241.984 340.685 244.666 342.96C244.872 343.121 245.132 343.195 245.392 343.167C245.652 343.138 245.89 343.009 246.056 342.807C246.221 342.605 246.301 342.346 246.279 342.086C246.256 341.825 246.132 341.584 245.934 341.414C243.631 339.318 241.794 336.761 240.543 333.909C239.292 331.057 238.653 327.974 238.67 324.86C241.706 327.509 245.554 329.046 249.58 329.218ZM309.904 218.47C306.994 212.35 303.701 206.421 300.042 200.718C297.528 197.278 295.98 196.134 289.524 197.778C283.068 199.422 260.104 211.798 256.724 214.602C253.344 217.406 252.664 220.694 253.724 225.432C254.784 230.17 261.46 241.678 262.724 244.094C263.366 245.301 264.275 246.346 265.38 247.15C266.486 247.954 267.76 248.497 269.106 248.736C269.814 253.426 269.178 258.221 267.27 262.564C275.682 259.664 279.84 250.33 280.032 246.564C287.502 242.794 304.062 232.802 308.316 229.804C312.57 226.806 311.354 221.758 309.904 218.47ZM276.478 222.344C275.878 223.524 273.656 223.81 273.028 222.62C272.884 222.378 272.791 222.109 272.756 221.829C272.721 221.55 272.744 221.266 272.824 220.996C272.904 220.726 273.039 220.476 273.221 220.26C273.403 220.045 273.627 219.87 273.88 219.746C274.244 219.576 274.651 219.522 275.046 219.591C275.442 219.661 275.806 219.85 276.09 220.134C276.374 220.418 276.563 220.782 276.633 221.178C276.702 221.573 276.648 221.98 276.478 222.344ZM280.134 231.4C279.863 231.641 279.528 231.799 279.169 231.855C278.811 231.911 278.443 231.862 278.112 231.714C277.78 231.566 277.499 231.326 277.3 231.022C277.102 230.718 276.996 230.363 276.994 230C277 229.673 277.095 229.355 277.268 229.078C277.442 228.801 277.687 228.576 277.978 228.428C278.27 228.28 278.596 228.214 278.921 228.238C279.247 228.261 279.561 228.372 279.828 228.56C280.057 228.709 280.251 228.907 280.394 229.14C280.537 229.373 280.627 229.635 280.656 229.907C280.685 230.179 280.654 230.454 280.563 230.712C280.473 230.971 280.326 231.205 280.134 231.4ZM287.934 230.708C287.504 231.548 285.668 230.86 285.758 229.826C286.068 226.226 289.346 219.468 279.008 216.088C278.754 215.967 278.551 215.762 278.433 215.507C278.315 215.251 278.291 214.963 278.364 214.692C278.437 214.42 278.603 214.183 278.833 214.022C279.063 213.86 279.342 213.785 279.622 213.808C288.154 214.228 291.778 223.182 287.932 230.708H287.934ZM305.296 320.994C292.12 321.568 277.99 325.266 276.642 339.448C274.686 360.036 297.498 363.486 313.128 362.704C314.452 365.566 316.359 368.12 318.726 370.203C321.094 372.287 323.869 373.854 326.876 374.804C324.661 370.473 323.534 365.668 323.59 360.804C330.696 358.19 334.148 353.004 334.85 345.342C336.302 329.476 321.942 320.268 305.294 321L305.296 320.994ZM292.85 338.054C299.445 337.528 306.074 337.569 312.662 338.176C317.518 338.776 317.344 341.908 312.122 341.278C308.03 340.788 295.134 340.806 293.038 340.118C292.17 339.834 291.864 338.226 292.848 338.054H292.85ZM312.782 349.104C306.899 349.132 301.024 348.688 295.212 347.776C293.996 347.536 294.412 345.564 295.554 345.464C300.632 345.016 307.07 345.918 312.604 345.782C317.614 345.662 317.072 349.1 312.78 349.104H312.782ZM387.85 332.478C381.036 332.486 374.389 334.58 368.8 338.478C367.692 339.278 368.55 341.056 369.836 340.398C374.405 337.965 379.356 336.33 384.476 335.564C381.155 338.949 378.35 342.803 376.15 347.004C375.4 348.582 377.316 349.818 378.272 348.278C381.64 342.842 384.072 338.938 389.12 334.858C390.456 333.786 390.45 332.442 387.848 332.478H387.85ZM287.45 314.424C284.428 311.128 282.025 307.314 280.356 303.166C278.852 299.296 277.004 300.256 275.896 303.042C273.208 309.806 272.716 320.162 275.944 326.764C276.462 327.824 278.264 327.164 278.102 326.036C277.012 318.556 276.146 313.758 278.274 306.316C280.028 309.985 282.246 313.413 284.874 316.516C286.532 318.484 287.778 318.356 289.426 316.306C302.738 299.772 332.958 305.432 335.784 329.106C336.038 331.226 338.76 331.106 338.636 328.948C337.2 304.282 301.8 294.022 287.452 314.424H287.45ZM217.51 121.778C216.798 119.978 214.56 114.834 214.126 113.722C210.5 115.848 196.234 119.332 193.236 119.922C201.11 122.223 209.378 122.855 217.51 121.778ZM181.944 158.922C180.904 158.458 180.864 156.922 182.312 157.492C190.085 160.168 198.345 161.129 206.524 160.308C214.703 159.488 222.608 156.905 229.694 152.738C225.778 147.372 221.588 134.464 219.332 124.31C192.132 126.776 191.132 119.088 173.852 118.362C157.652 117.68 151.052 131.02 147.452 142.15C141.072 161.876 131.11 188.35 110.756 204.666C128.8 224 164.182 235.222 193.432 236.286C196.432 219.226 200.848 176.242 199.432 162.518C193.432 162.398 187.505 161.179 181.944 158.922Z" fill="#06DAAE"/>
<path d="M263.034 90.22C253.66 105.078 237.296 116.22 223.48 123.03C221.862 123.83 222.694 125.592 224.348 124.83C241.122 117.14 256.592 104.188 264.634 91.272C266.329 89.0136 267.297 86.2934 267.41 83.472C267.614 79.2485 268.294 75.0614 269.436 70.99C269.922 69.442 268.846 68.59 267.766 70.226C266.018 72.862 265.318 80.394 265.212 83.532C265.169 85.9286 264.41 88.2576 263.034 90.22ZM289.434 72.302C289.95 71.114 291.312 71.746 290.974 72.924C289.092 78.7391 286.263 84.2038 282.602 89.098C279.888 92.794 279.032 92.568 276.844 96.578C266.354 115.79 249.6 134.612 230.328 145.058C229.272 145.632 228.308 143.858 229.304 143.248C250.93 130.026 262.74 116.62 274.852 95.35C276.972 91.626 278.376 90.836 280.89 87.37C284.302 82.6898 287.167 77.6342 289.428 72.302H289.434ZM287.574 65.62C286.386 69.1091 284.914 72.4951 283.174 75.744C282.242 77.544 283.774 78.21 285.114 76.598C287.229 73.4331 288.653 69.8581 289.294 66.106C289.432 64.83 288 64.368 287.568 65.62H287.574ZM283.418 61.294C282.92 65.9122 281.491 70.3815 279.218 74.432C278.766 75.382 280.06 76.376 280.782 75.52C283.684 71.3802 285.238 66.4457 285.232 61.39C285.245 61.1487 285.161 60.9122 284.999 60.7325C284.838 60.5529 284.611 60.4448 284.37 60.432C284.129 60.4193 283.892 60.503 283.712 60.6646C283.533 60.8263 283.425 61.0527 283.412 61.294H283.418ZM278.98 61.194C277.746 67.0556 275.393 72.624 272.05 77.594C271.906 77.7932 271.844 78.0404 271.877 78.2842C271.91 78.5279 272.036 78.7494 272.229 78.9027C272.421 79.056 272.665 79.1292 272.91 79.1071C273.155 79.085 273.382 78.9693 273.544 78.784C277.558 73.8329 280.058 67.8288 280.744 61.492C280.763 61.3758 280.759 61.257 280.732 61.1422C280.706 61.0275 280.657 60.9192 280.588 60.8235C280.519 60.7277 280.433 60.6465 280.333 60.5843C280.232 60.5221 280.121 60.4802 280.005 60.461C279.889 60.4419 279.77 60.4458 279.655 60.4725C279.54 60.4993 279.432 60.5484 279.336 60.617C279.241 60.6856 279.159 60.7724 279.097 60.8725C279.035 60.9725 278.993 61.0838 278.974 61.2L278.98 61.194ZM233.06 106.138C228.194 109.166 223.083 111.781 217.78 113.954C216.858 114.354 217.212 115.676 218.38 115.554C221.806 115.192 231.864 110.154 234.036 107.492C234.618 106.766 233.954 105.566 233.054 106.138H233.06ZM339.49 227.338C340.993 228.904 342.178 230.747 342.98 232.764C342.99 233.023 342.923 233.279 342.789 233.501C342.655 233.722 342.459 233.9 342.225 234.012C341.991 234.123 341.73 234.164 341.473 234.129C341.216 234.094 340.975 233.984 340.78 233.814C340.114 233.26 339.01 230.566 337.824 229.428C337.168 230.268 335.908 233.672 335.33 234.8C335.179 235.077 334.926 235.285 334.625 235.378C334.323 235.472 333.997 235.444 333.716 235.301C333.435 235.158 333.22 234.911 333.118 234.613C333.016 234.314 333.035 233.987 333.17 233.702C333.734 232.114 335.14 228.144 336.37 227.164C336.825 226.818 337.389 226.645 337.959 226.677C338.53 226.709 339.071 226.945 339.484 227.34L339.49 227.338ZM317.448 252.224C309.632 251.376 302.61 248.004 300.408 239.872C300.317 239.624 300.142 239.417 299.913 239.286C299.684 239.155 299.416 239.11 299.157 239.158C298.898 239.206 298.664 239.344 298.497 239.548C298.33 239.752 298.24 240.008 298.244 240.272C299.166 250.334 310.292 254.566 318.968 255.168C319.396 257.712 323.25 267.27 325.884 269.052C327.188 269.932 328.794 269.474 327.742 268.072C324.968 264.112 322.854 259.729 321.48 255.094C320.43 252.286 320.498 252.558 317.442 252.226L317.448 252.224ZM332.648 255.21C333.888 252.716 334.274 253.196 337.01 253.066C359.288 251.992 364.042 228.306 347.79 217.496C338.966 211.626 324.276 212.262 314.492 215.112C312.8 215.604 312.334 213.288 314.02 212.796C327.22 208.948 341.19 208.744 352.258 217.596C367.258 229.596 360.458 255.87 335.356 255.502C333.434 258.65 331.918 262.008 329.888 265.148C329.76 265.396 329.54 265.583 329.275 265.67C329.011 265.758 328.722 265.738 328.472 265.615C328.222 265.493 328.03 265.277 327.937 265.014C327.843 264.752 327.857 264.463 327.974 264.21C329.364 261.088 331.158 258.22 332.652 255.212L332.648 255.21ZM331.786 239.424C332.145 239.36 332.514 239.442 332.813 239.651C333.112 239.859 333.315 240.178 333.379 240.537C333.443 240.896 333.361 241.265 333.152 241.564C332.944 241.863 332.625 242.066 332.266 242.13C328.95 243.038 325.452 243.044 322.134 242.146C321.963 242.086 321.806 241.992 321.671 241.871C321.537 241.75 321.427 241.604 321.349 241.441C321.271 241.277 321.226 241.1 321.216 240.919C321.207 240.739 321.233 240.558 321.293 240.387C321.353 240.216 321.447 240.059 321.568 239.924C321.689 239.79 321.835 239.68 321.998 239.602C322.162 239.524 322.339 239.479 322.52 239.469C322.7 239.46 322.881 239.486 323.052 239.546C325.926 240.287 328.947 240.246 331.8 239.426L331.786 239.424ZM321.212 232.306C320.654 230.758 319.945 229.27 319.094 227.862C318.902 227.62 318.659 227.422 318.384 227.282C318.109 227.142 317.807 227.062 317.498 227.048C317.189 227.035 316.881 227.087 316.594 227.203C316.308 227.318 316.049 227.494 315.836 227.718C314.541 229.73 313.481 231.884 312.678 234.138C312.613 234.377 312.636 234.632 312.742 234.855C312.849 235.079 313.032 235.257 313.259 235.357C313.486 235.456 313.741 235.472 313.978 235.399C314.215 235.327 314.418 235.172 314.55 234.962C315.608 233.3 316.368 231.562 317.32 229.87C317.82 230.98 318.272 232.158 318.744 233.286C320.06 236.424 322.508 235.24 321.216 232.308L321.212 232.306ZM309.138 366.386C308.696 377.872 305.124 379.222 295.138 378.238C281.854 377.191 268.672 375.118 255.708 372.038C250.036 370.548 246.108 369.064 246.014 361.838C245.936 356.17 248.712 344.154 249.762 338.038C250.312 334.838 251.424 330.502 255.454 330.586C255.258 325.356 254.222 320.191 252.386 315.29C251.262 312.55 252.242 310.726 255.522 312.912C261.5 316.805 265.917 322.677 268 329.5C270.113 329.666 272.212 329.972 274.284 330.416C276.268 330.848 277.266 333.162 273.016 332.798C271.294 332.716 269.581 332.491 267.896 332.126C266.202 331.652 265.512 331.41 264.896 329.726C263.149 324.765 260.106 320.362 256.082 316.974C257.489 321.502 258.118 326.236 257.942 330.974C257.878 332.626 256.942 332.434 255.242 333.224C253.386 334.096 252.842 336.372 252.536 338.534C251.506 345.934 248.974 354.696 248.99 361.838C249.002 367.26 252.68 368.798 257.04 369.57C270.55 371.96 283.698 374.23 297.452 375.45C303.772 376.01 306.158 373.486 306.162 366.85C306.174 364.022 309.218 364.45 309.142 366.388L309.138 366.386ZM271.84 342.5C274.092 343.176 273.574 345.3 271.84 345.338C271.796 345.338 267.09 344.538 266.998 344.522C266.778 344.469 266.579 344.349 266.429 344.179C266.279 344.009 266.185 343.797 266.16 343.572C266.134 343.347 266.178 343.119 266.287 342.92C266.395 342.721 266.561 342.559 266.764 342.458C268.417 341.917 270.201 341.932 271.844 342.502L271.84 342.5ZM276.084 351.05C276.966 351.75 277.066 353.402 275.94 353.546C272.57 353.552 269.224 352.986 266.044 351.872C265.792 351.778 265.581 351.598 265.45 351.363C265.318 351.128 265.274 350.854 265.326 350.59C265.377 350.325 265.521 350.088 265.731 349.92C265.942 349.752 266.205 349.664 266.474 349.672C268.254 349.972 275.3 350.428 276.088 351.052L276.084 351.05ZM287.496 361.622C287.835 361.73 288.124 361.955 288.312 362.257C288.499 362.559 288.573 362.918 288.519 363.27C288.465 363.621 288.288 363.942 288.018 364.174C287.749 364.406 287.406 364.535 287.05 364.536C283.65 364.218 265.928 361.11 263.474 359.972C262.296 359.424 263.074 357.89 264.098 357.804C266.474 357.6 284.47 360.824 287.5 361.624L287.496 361.622ZM198 373.824C190.549 370.735 182.88 368.199 175.056 366.236C173.656 365.97 171.336 367.854 174.056 368.734C180.198 370.718 187.834 373.234 194.16 375.402C198.608 376.93 200.598 377.816 195.13 378.08C182.598 378.68 170.022 378.79 157.482 379.032C150.218 379.17 150.616 375.614 152.786 369.658C153.24 368.412 151.14 367.554 150.604 368.78C148.588 373.38 147.404 380.612 154.034 381.504C160.664 382.396 188.284 380.96 195.872 380.79C202.908 380.634 203.658 376 198 373.824ZM43.522 212.518C43.0539 211.376 42.3323 210.356 41.4118 209.534C40.4912 208.713 39.3958 208.111 38.2085 207.775C37.0211 207.439 35.773 207.378 34.5584 207.596C33.3438 207.814 32.1947 208.305 31.198 209.032C27.538 211.97 14.672 237.306 11.398 243.312C7.78597 249.93 11.704 252.192 17.502 248.168C23.2812 244.216 28.4438 239.431 32.822 233.968C33.732 232.818 31.98 231.644 31.022 232.656C26.7606 237.276 22.059 241.469 16.984 245.176C12.728 248.222 11.638 248.608 14.304 243.73C18.074 236.84 30.36 212.176 34.046 210.456C37.104 209.03 39.792 211.562 41.712 213.634C41.8798 213.826 42.1103 213.952 42.3625 213.99C42.6147 214.028 42.8722 213.976 43.0893 213.842C43.3064 213.708 43.469 213.502 43.5482 213.259C43.6274 213.017 43.6181 212.754 43.522 212.518ZM358.648 339.118C358.522 333.214 359.586 328.25 360.272 320.094C355.482 325.276 351.196 330.901 347.472 336.894C344.481 336.683 341.476 336.972 338.58 337.75C339.161 340.989 339.125 344.308 338.474 347.534C337.104 354.634 333.922 359.718 328.446 362.714C336.246 378.18 368.096 380.804 373.134 363.114C376.68 350.648 368.936 342.738 358.648 339.12V339.118ZM343.154 355.618C342.807 355.872 342.4 356.031 341.972 356.08C341.545 356.129 341.112 356.066 340.716 355.896C340.321 355.727 339.976 355.457 339.717 355.114C339.457 354.771 339.292 354.367 339.236 353.94C339.176 353.547 339.209 353.145 339.332 352.767C339.455 352.388 339.664 352.044 339.944 351.761C340.223 351.478 340.565 351.264 340.942 351.136C341.319 351.009 341.72 350.971 342.114 351.026C342.597 351.131 343.04 351.372 343.391 351.721C343.742 352.069 343.986 352.51 344.095 352.992C344.205 353.474 344.174 353.978 344.007 354.443C343.841 354.909 343.545 355.317 343.154 355.62V355.618ZM353.34 358C352.954 358.284 352.504 358.468 352.031 358.538C351.557 358.608 351.073 358.561 350.621 358.401C350.17 358.241 349.765 357.972 349.441 357.619C349.117 357.266 348.884 356.84 348.764 356.376C348.643 355.913 348.637 355.427 348.747 354.96C348.858 354.494 349.08 354.062 349.396 353.702C349.712 353.342 350.111 353.064 350.558 352.894C351.006 352.723 351.489 352.665 351.964 352.724C352.571 352.754 353.153 352.977 353.625 353.361C354.097 353.745 354.434 354.269 354.587 354.857C354.741 355.446 354.703 356.068 354.478 356.633C354.254 357.198 353.855 357.677 353.34 358ZM363.94 359.266C363.683 359.684 363.318 360.025 362.884 360.252C362.449 360.48 361.961 360.585 361.471 360.557C360.981 360.529 360.508 360.369 360.102 360.094C359.695 359.819 359.371 359.439 359.164 358.994C358.966 358.52 358.904 357.999 358.985 357.491C359.067 356.983 359.289 356.509 359.627 356.12C359.964 355.732 360.404 355.446 360.895 355.295C361.386 355.143 361.91 355.132 362.408 355.262C362.818 355.361 363.199 355.558 363.516 355.837C363.833 356.116 364.077 356.468 364.228 356.862C364.379 357.257 364.431 357.682 364.38 358.101C364.33 358.52 364.178 358.921 363.938 359.268L363.94 359.266ZM205.94 84.218C199.8 82.376 189.058 74 187.066 69.264C185.544 74.196 176.982 86.236 176.39 85.292C176.017 84.6577 175.463 84.1493 174.799 83.8316C174.135 83.514 173.391 83.4017 172.663 83.5091C171.935 83.6165 171.256 83.9387 170.712 84.4344C170.168 84.9302 169.784 85.577 169.61 86.292C169.304 86.9976 169.183 87.7699 169.261 88.5352C169.338 89.3005 169.611 90.0331 170.052 90.6629C170.494 91.2928 171.089 91.7989 171.782 92.1328C172.475 92.4667 173.242 92.6172 174.01 92.57C174.318 92.5631 174.617 92.6749 174.845 92.8823C175.073 93.0896 175.212 93.3767 175.234 93.684C174.991 101.288 173.13 108.752 169.776 115.58C169.176 116.702 167.466 116.152 168.016 114.99C168.566 113.828 169.08 112.622 169.544 111.418C163.16 110.418 142.296 103.084 136.426 86.52C156.004 76.44 158.18 65.12 163.692 58.596C171.114 49.806 180.372 46.92 183.056 53.012C187.34 41.114 211.362 48.154 215.328 66.864C218.228 80.544 210.11 89.79 221.202 103.264C217.622 107.634 201.12 116.048 187.838 114.634C187.736 115.564 187.688 116.499 187.694 117.434C187.694 118.968 186.054 118.492 185.824 117.548C185.686 114.537 185.868 111.52 186.366 108.548C183.841 107.058 181.493 105.287 179.366 103.27C178.534 102.564 179.38 101.426 180.232 102.088C183.306 104.476 186.51 107.14 190.508 107.668C194.548 108.2 197.462 105.98 199.59 102.762C203.163 97.1806 205.337 90.8204 205.93 84.22L205.94 84.218ZM193.74 77.638C192.754 77.3957 191.721 77.4193 190.747 77.7063C189.773 77.9934 188.893 78.5337 188.196 79.272C187.372 80.332 188.322 81.072 189.196 80.576C190.443 79.8004 191.908 79.4496 193.372 79.576C193.607 79.5779 193.835 79.4971 194.016 79.3477C194.197 79.1983 194.32 78.9898 194.363 78.7589C194.406 78.528 194.366 78.2893 194.251 78.0847C194.136 77.8801 193.952 77.7227 193.732 77.64L193.74 77.638ZM191.044 98.112C190.096 98.1215 189.175 97.7939 188.446 97.1877C187.717 96.5814 187.227 95.7359 187.064 94.802C186.708 93.668 185.706 93.802 185.59 94.66C185.505 95.3026 185.569 95.9562 185.777 96.5701C185.985 97.184 186.332 97.7417 186.79 98.2C187.248 98.6584 187.806 99.005 188.42 99.2131C189.034 99.4212 189.687 99.4852 190.33 99.4C192.774 99.16 192.484 98.118 191.044 98.112ZM190.506 84.492C190.336 85.092 190.43 86.144 191.004 86.372C192.104 86.812 192.758 86.038 193.064 85.114C194 82.296 191.306 81.696 190.506 84.492ZM201.654 85.596C200.41 85.396 199.106 88.572 200.724 88.95C202.236 89.304 203.106 85.834 201.654 85.6V85.596ZM198.416 86.996C198.298 86.236 197.73 86.274 197.376 86.912C196.879 88.7345 196.502 90.5879 196.25 92.46C196.062 93.486 195.902 94.16 194.72 93.824C194.318 93.6943 193.933 93.5142 193.576 93.288C192.802 92.834 191.996 93.516 193.02 94.512C194.782 96.228 197.342 95.828 197.908 93.724C198.247 91.4988 198.417 89.251 198.416 87V86.996ZM188.8 237.736C156.744 237.736 127.3 221.12 117.726 213.658C110.716 220.33 102.17 230.338 94.374 230.386C78.926 230.484 55.114 218.226 45.638 214.166C41.384 218.808 36.018 229.71 34.47 233.384C38.918 238.984 81.92 265.596 91.47 266.552C112.918 268.696 138.292 260.926 153.898 250.66C155.028 249.916 155.73 251.042 154.68 251.95C151.947 254.254 148.992 256.281 145.858 258C149.624 276.736 153.782 320.524 149.918 365.6C155.068 366.22 170.056 365.092 174.504 364.512C177.018 356.2 190.822 261.668 188.8 237.736Z" fill="#191919"/>
</svg>
